<svg xmlns="http://www.w3.org/2000/svg" width="56" height="32" fill="none" xmlns:v="https://vecta.io/nano"><path d="M2.796 30.925H0l4.305-8.316h3.089l4.114 8.316H8.404l-.63-1.493H3.455l-.659 1.493zm4.231-3.309l-1.332-3.031-1.406 3.031h2.738zm5.115-5.007h2.679v8.316h-2.679v-8.316zm4.042 0h2.679v1.698h-2.679v-1.698zm0 2.518h2.679v5.798h-2.679v-5.798zm4.142-2.525h2.679v3.353c.322-.322.674-.571 1.069-.732a3.37 3.37 0 0 1 1.288-.249c.908 0 1.64.293 2.196.878s.835 1.362.835 2.313c0 .878-.278 1.581-.82 2.108s-1.274.791-2.181.791c-.498 0-.952-.088-1.362-.278-.41-.176-.747-.454-1.04-.805 0 .19 0 .366-.029.527a2.68 2.68 0 0 1-.073.41h-2.679c.029-.102.059-.249.073-.41l.029-.556v-7.35h.015zm5.373 5.447c0-.512-.117-.908-.366-1.215-.234-.293-.571-.439-.981-.439-.439 0-.776.146-1.025.425-.234.278-.351.703-.351 1.244 0 .513.117.908.351 1.186s.571.425.996.425.747-.146.996-.439.381-.688.381-1.186zm8.814 1.944a2.22 2.22 0 0 1-.996.747c-.41.161-.893.249-1.479.249-.82 0-1.464-.146-1.903-.439a1.4 1.4 0 0 1-.659-1.244c0-.732.381-1.259 1.142-1.581s2.05-.498 3.851-.513v-.058-.073c0-.293-.088-.512-.264-.659s-.439-.22-.805-.22c-.322 0-.571.059-.747.161a.62.62 0 0 0-.307.483h-2.474c.015-.644.322-1.127.908-1.435.6-.308 1.508-.468 2.738-.468 1.171 0 2.05.176 2.636.556.571.366.864.922.864 1.669v2.957a3.26 3.26 0 0 0 .029.439c.015.117.044.22.088.307h-2.489c-.044-.132-.088-.278-.102-.425l-.029-.454zm-.059-1.654c-.864 0-1.464.059-1.772.176s-.468.308-.468.586c0 .19.073.337.234.454.146.102.366.161.644.161.454 0 .791-.102 1.025-.322.234-.205.337-.527.337-.966v-.088zm3.789-5.737h2.679v3.353c.322-.322.673-.571 1.069-.732a3.37 3.37 0 0 1 1.288-.249c.908 0 1.64.293 2.196.878s.834 1.362.834 2.313c0 .878-.278 1.581-.82 2.108s-1.274.791-2.181.791c-.498 0-.952-.088-1.362-.278-.41-.176-.747-.454-1.04-.805 0 .19-.015.366-.029.527a2.56 2.56 0 0 1-.073.41h-2.679c.029-.102.059-.249.073-.41l.029-.556v-7.35h.015zm5.373 5.447c0-.512-.117-.908-.366-1.215-.234-.293-.571-.439-.981-.439-.439 0-.776.146-1.01.425s-.351.703-.351 1.244c0 .513.117.908.351 1.186s.571.425.996.425c.41 0 .747-.146.996-.439s.366-.688.366-1.186zm8.814 1.944a2.22 2.22 0 0 1-.996.747c-.41.161-.893.249-1.479.249-.82 0-1.464-.146-1.903-.439a1.4 1.4 0 0 1-.659-1.244c0-.732.381-1.259 1.142-1.581s2.05-.498 3.851-.513v-.058-.073c0-.293-.088-.512-.264-.659s-.439-.22-.805-.22c-.322 0-.571.059-.747.161a.62.62 0 0 0-.308.483h-2.474c.015-.644.322-1.127.908-1.435.6-.308 1.508-.468 2.738-.468 1.171 0 2.05.176 2.635.556.571.366.864.922.864 1.669v2.957a3.28 3.28 0 0 0 .029.439c.015.117.044.22.088.307h-2.489c-.044-.132-.088-.278-.102-.425l-.029-.454zm-.059-1.654c-.864 0-1.45.059-1.772.176-.308.117-.468.308-.468.586 0 .19.073.337.234.454.146.102.366.161.644.161.454 0 .791-.102 1.025-.322.234-.205.337-.527.337-.966v-.088z" fill="#f60"/><path d="M15.906 16.197c-.146-.015-.381-.146-.542-.278-1.567-1.537.439-3.309 2.782-4.334V8.657c.542.351.849.366.864.41l1.786-1.772-.6-1.523c5.227-1.801 7.321-2.489 11.567-3.206l-.761-.717 1.245-.703c2.855.937 5.549 1.186 5.08 3.587.117-1.625-1.903-2.24-4.978-3.104l-.6.366 1.142.937c-5.08.878-8.214 1.874-11.933 3.162l.512 1.318-1.874 1.859c.307.088 3.572 1.171 6.954-1.186 0 0 .073-.044.073-.073-.102-.161-.337-.351-.615-.6a1.63 1.63 0 0 1 1.523 1.845h-.468c.029-.293-.029-.615-.132-.82-2.621 1.918-5.666 2.196-8.258 1.288v2.269c-1.259.439-3.499 1.83-3.485 3.177a1.22 1.22 0 0 0 .717 1.025z" fill="#000"/><g fill="#f60"><path d="M26.625 15.447c-2.811 1.42-5.505 2.562-9.648 2.723-5.403-.117-6.237-3.704-3.69-7.452 2.416-3.777 6.252-7.203 12.343-9.341C27.401.747 29.993.044 32.496.001c3.602-.029 7.101 1.083 6.867 4.539-.132 2.65-3.953 6.369-5.959 9.048-.864 1.171-1.01 1.933.468 1.859 5.344-.351 10.176-2.196 14.67-4.114-3.045 2.064-18.755 9.839-18.814 4.539.015-.674.322-1.391.835-2.152.498-.761 1.186-1.552 1.903-2.357 1.069-1.215 3.733-4.143 4.627-5.9 1.508-3.28-1.859-3.441-4.773-4.466l-1.245.703.761.717c-4.246.703-6.34 1.406-11.567 3.206l.6 1.523L19.1 8.902c-.044-.044-.307-.059-.864-.41v2.928c-2.328 1.025-4.348 2.796-2.782 4.334.161.132.395.264.542.278 2.87 1.611 10.644-.586 10.63-.586zm16.8 1.902h.366a.57.57 0 0 0 .176-.029c.044-.014.073-.044.102-.073.029-.044.029-.073.029-.117a.18.18 0 0 0-.073-.146c-.044-.044-.117-.059-.205-.059h-.395v.425zm-.161.732v-1.303h.586a1.09 1.09 0 0 1 .264.029.31.31 0 0 1 .146.132c.044.059.059.117.059.19 0 .088-.029.176-.088.234s-.146.102-.278.117c.044.015.088.044.102.059.044.044.102.102.146.176l.234.351h-.22l-.176-.264a.71.71 0 0 0-.132-.19c-.029-.044-.059-.073-.088-.088s-.044-.029-.073-.029h-.103-.22v.586h-.161z"/><path d="M43.784 18.685c.688 0 1.244-.556 1.244-1.244s-.556-1.245-1.244-1.245-1.245.556-1.245 1.245.556 1.244 1.245 1.244zM42.73 17.44a1.05 1.05 0 1 1 2.108 0 1.06 1.06 0 0 1-1.054 1.054 1.05 1.05 0 0 1-1.054-1.054z"/></g></svg>