<svg xmlns="http://www.w3.org/2000/svg" width="85" height="26" fill="none" fill-rule="evenodd" xmlns:v="https://vecta.io/nano"><path d="M52.58 19.773c-4.881 3.594-11.957 5.511-18.048 5.511-8.541 0-16.231-3.155-22.048-8.404-.457-.413-.048-.975.501-.654 6.278 3.648 14.041 5.843 22.06 5.843 5.408 0 11.357-1.118 16.827-3.437.826-.351 1.517.541.709 1.139m2.027-2.317c-.622-.796-4.124-.376-5.697-.19-.479.058-.552-.358-.121-.657 2.79-1.961 7.368-1.395 7.902-.738s-.139 5.244-2.761 7.432c-.402.336-.786.157-.607-.288.589-1.468 1.909-4.759 1.283-5.559" fill="#f90"/><g fill="#000"><path d="M49.022 2.761V.855a.47.47 0 0 1 .483-.482h8.545c.274 0 .494.197.494.482v1.633c-.004.274-.234.632-.644 1.198L53.471 10c1.645-.04 3.382.205 4.874 1.045.336.19.428.467.453.741v2.034c0 .278-.307.603-.629.435-2.629-1.377-6.121-1.527-9.028.015-.296.161-.607-.161-.607-.438V11.9c0-.31.004-.84.314-1.311l5.13-7.348h-4.465c-.274 0-.494-.194-.494-.478M17.85 14.656h-2.6a.49.49 0 0 1-.464-.442V.887c0-.267.223-.478.501-.478h2.424a.49.49 0 0 1 .472.446v1.742h.047C18.863.913 20.051.128 21.653.128c1.627 0 2.644.785 3.375 2.469C25.657.913 27.087.128 28.619.128c1.09 0 2.282.449 3.009 1.457.823 1.121.654 2.75.654 4.178l-.004 8.411a.49.49 0 0 1-.501.482h-2.596c-.26-.018-.468-.226-.468-.482V7.111c0-.562.051-1.965-.073-2.498-.194-.895-.775-1.147-1.528-1.147-.629 0-1.287.42-1.554 1.092s-.241 1.797-.241 2.553v7.063a.49.49 0 0 1-.501.482H22.22a.49.49 0 0 1-.468-.482l-.004-7.063c0-1.486.245-3.674-1.602-3.674-1.868 0-1.795 2.133-1.795 3.674v7.063a.49.49 0 0 1-.501.482M65.9.128c3.858 0 5.945 3.309 5.945 7.516 0 4.065-2.307 7.29-5.945 7.29-3.788 0-5.85-3.309-5.85-7.432 0-4.149 2.088-7.374 5.85-7.374h0zm.022 2.721c-1.916 0-2.037 2.608-2.037 4.233s-.026 5.106 2.015 5.106c2.015 0 2.11-2.805 2.11-4.514 0-1.125-.047-2.469-.388-3.535-.293-.928-.874-1.289-1.7-1.289m10.925 11.806h-2.589c-.26-.018-.468-.226-.468-.482L73.787.844c.022-.245.238-.435.501-.435h2.41c.227.011.413.164.464.373V2.82h.048C77.937.997 78.957.128 80.752.128c1.166 0 2.304.42 3.035 1.57.68 1.066.68 2.86.68 4.149v8.389a.5.5 0 0 1-.501.42h-2.607c-.238-.018-.435-.194-.461-.42V6.997c0-1.457.168-3.59-1.627-3.59-.633 0-1.214.424-1.503 1.066-.366.814-.413 1.625-.413 2.524v7.176a.5.5 0 0 1-.508.482"/><path d="M42.209 8.29c0 1.012.026 1.855-.486 2.754-.413.73-1.071 1.18-1.799 1.18-.998 0-1.583-.76-1.583-1.881 0-2.213 1.985-2.615 3.868-2.615v.562h0zm2.622 6.329c-.172.153-.421.164-.614.062-.863-.716-1.02-1.048-1.492-1.731-1.426 1.454-2.439 1.888-4.285 1.888-2.19 0-3.891-1.348-3.891-4.047 0-2.107 1.141-3.543 2.772-4.244 1.411-.621 3.382-.73 4.889-.902V5.31c0-.617.048-1.348-.318-1.881-.314-.478-.921-.676-1.459-.676-.991 0-1.872.508-2.088 1.559-.044.234-.216.464-.453.475l-2.519-.27c-.212-.047-.45-.219-.388-.544C35.562.92 38.326 0 40.798 0c1.265 0 2.918.336 3.916 1.293 1.265 1.18 1.145 2.754 1.145 4.467v4.047c0 1.216.505 1.749.98 2.407.164.234.201.515-.011.69l-1.993 1.724-.004-.007M8.128 8.29c0 1.012.026 1.855-.486 2.754-.413.73-1.068 1.18-1.799 1.18-.998 0-1.58-.76-1.58-1.881 0-2.213 1.985-2.615 3.865-2.615v.562h0zm2.622 6.329c-.172.153-.421.164-.614.062-.863-.716-1.017-1.048-1.492-1.731-1.426 1.454-2.435 1.888-4.285 1.888-2.187 0-3.89-1.348-3.89-4.047 0-2.107 1.144-3.543 2.772-4.244 1.411-.621 3.382-.73 4.889-.902V5.31c0-.617.048-1.348-.314-1.881-.318-.478-.925-.676-1.459-.676-.991 0-1.876.508-2.091 1.559-.044.234-.216.464-.45.475l-2.523-.27c-.212-.047-.446-.219-.388-.544C1.484.92 4.244 0 6.716 0c1.265 0 2.918.336 3.916 1.293 1.265 1.18 1.144 2.754 1.144 4.467v4.047c0 1.216.505 1.749.98 2.407.168.234.205.515-.007.69l-1.993 1.724-.007-.007"/></g></svg>
