<svg xmlns="http://www.w3.org/2000/svg" width="100" height="40" fill="none" xmlns:v="https://vecta.io/nano"><path d="M13.284 8.641C6.293 8.641.467 11.599.467 20.523c0 7.07 3.917 11.522 12.997 11.522 10.687 0 11.372-7.021 11.372-7.021h-5.178s-1.11 3.781-6.51 3.781c-4.398 0-7.561-2.963-7.561-7.116h19.79v-2.606c0-4.108-2.615-10.442-12.094-10.442h0zm-.181 3.331c4.186 0 7.04 2.558 7.04 6.391H5.702c0-4.069 3.725-6.391 7.401-6.391h0z" fill="#e53238"/><path d="M25.375 0v27.563l-.112 3.761h4.939s.177-1.578.177-3.02c0 0 2.44 3.807 9.076 3.807 6.987 0 11.733-4.838 11.733-11.769 0-6.448-4.359-11.634-11.722-11.634-6.895 0-9.037 3.713-9.037 3.713V0h-5.054zm12.816 12.118c4.745 0 7.762 3.512 7.762 8.225 0 5.054-3.485 8.36-7.728 8.36-5.064 0-7.796-3.943-7.796-8.315 0-4.074 2.451-8.27 7.762-8.27z" fill="#0064d2"/><path d="M63.463 8.641c-10.517 0-11.192 5.743-11.192 6.661h5.235s.275-3.353 5.596-3.353c3.458 0 6.138 1.578 6.138 4.613v1.08h-6.138c-8.148 0-12.455 2.377-12.455 7.201 0 4.747 3.98 7.331 9.359 7.331 7.33 0 9.691-4.039 9.691-4.039 0 1.607.124 3.19.124 3.19h4.654s-.181-1.962-.181-3.218V17.255c0-7.116-5.755-8.613-10.831-8.613h0zm5.777 12.242v1.44c0 1.878-1.162 6.549-8.005 6.549-3.747 0-5.353-1.865-5.353-4.028 0-3.935 5.41-3.961 13.358-3.961h0z" fill="#f5af02"/><path d="M71.475 9.542h5.889l8.452 16.887 8.433-16.887h5.335l-15.36 30.065h-5.596l4.432-8.381L71.475 9.542z" fill="#86b817"/></svg>