<svg xmlns="http://www.w3.org/2000/svg" width="98" height="28" fill="#bf0000" xmlns:v="https://vecta.io/nano"><path d="M78.523 23.466H19.879L24.556 28l53.967-4.534zm9.414-2.891v-9.069c0-1.7 1.228-3.117 2.982-3.117s2.982 1.417 2.982 3.117v9.069h3.625v-9.069c0-3.741-2.631-6.745-6.49-6.745-1.754 0-3.099.964-3.099.964v-.623h-3.625v15.417h3.625v.057zM75.951 4.704c-4.21 0-7.192 3.571-7.192 8.105 0 4.761 3.742 8.105 7.543 8.105 1.929 0 4.327-.623 6.373-3.457l-3.216-1.814c-2.456 3.514-6.607 1.757-7.075-1.814h10.407c.936-5.441-2.748-9.125-6.841-9.125zm3.157 6.121h-6.49c.76-3.571 5.788-3.798 6.49 0zM67.59 16.891c-.351.227-.76.397-1.228.397-.585 0-1.696-.454-1.696-1.871V8.786h3.099V5.101h-3.099V1.247h-3.625v3.854h-1.929v3.684h1.929v6.632c0 3.458 2.69 5.498 5.379 5.498.994 0 2.397-.34 3.508-.964l-2.339-3.061zM54.259 5.101v9.069c0 1.7-1.228 3.118-2.982 3.118s-2.982-1.417-2.982-3.118V5.101H44.67v9.069c0 3.741 2.631 6.745 6.49 6.745 1.754 0 3.099-.964 3.099-.964v.567h3.625V5.101h-3.625zm-16.371 7.255l6.198-7.255h-5.028l-4.385 5.385V0H30.99v20.575h3.683v-6.348l5.379 6.348h5.028l-7.192-8.219zM25.317 5.101v.68c-1.111-.68-2.046-1.077-3.391-1.077-4.093 0-7.25 3.628-7.25 8.105s3.099 8.105 7.25 8.105c1.345 0 2.339-.397 3.391-1.077v.68h3.625V5.101h-3.625zm-3.45 12.13c-2.046 0-3.508-1.927-3.508-4.364s1.462-4.364 3.508-4.364 3.45 1.927 3.45 4.364c.058 2.437-1.403 4.364-3.45 4.364zM4.268 20.575v-6.008h2.631l4.619 5.951h4.736l-5.613-7.198a6.52 6.52 0 0 0 2.865-5.441c0-3.684-3.099-6.632-6.841-6.632H.467v19.271h3.8v.057zm0-15.644h2.456c1.696 0 3.099 1.36 3.099 3.004s-1.403 3.004-3.099 3.004H4.268V4.931z"/></svg>