<svg xmlns="http://www.w3.org/2000/svg" width="112" height="26" fill="none" xmlns:v="https://vecta.io/nano"><path d="M39.969 9.248v1.474h.045c.53-.789 1.41-1.718 3.361-1.718 1.518 0 2.682.773 3.181 1.94h.045c.426-.59.915-1.037 1.462-1.353.648-.375 1.369-.59 2.277-.59 2.055 0 3.874 1.337 3.874 4.707V20.1h-3.133v-5.946c0-1.708-.617-2.696-1.899-2.696-.939 0-1.622.593-1.882 1.323-.09.251-.132.593-.132.88v6.442h-3.133v-6.191c0-1.451-.593-2.458-1.857-2.458-1.012 0-1.646.75-1.906 1.392-.111.274-.145.59-.145.887V20.1h-3.136V9.248h2.977zm30.416 0v2.047h.087c.575-1.565 1.941-2.292 3.14-2.292a3.32 3.32 0 0 1 .71.068v2.843c-.288-.039-.554-.078-.929-.078-1.358 0-2.304.743-2.544 1.907-.052.241-.069.502-.069.802v5.558h-3.216V9.248h2.821zm8.303-3.596v3.416h2.717v2.764h-2.717v4.078c0 1.32.357 1.959 1.417 1.959a4.97 4.97 0 0 0 1.185-.134l.042 2.292c-.426.15-1.334.313-2.256.313-1.085 0-1.989-.355-2.54-.906-.631-.629-.922-1.659-.922-3.126V5.652h3.074zM34.809 20.1H31.69V5.652h3.119V20.1zm-8.317-3.876c0 .199-.017.407-.076.587-.243.753-1.071 1.389-2.104 1.389-.863 0-1.549-.46-1.549-1.434 0-1.49 1.747-1.904 3.732-1.894v1.353h-.003zm3.115-2.598c0-2.461-1.116-4.623-4.89-4.623-1.937 0-3.476.512-4.314.968l.613 1.976c.766-.456 1.989-.831 3.147-.831 1.916-.003 2.228 1.02 2.228 1.676v.157c-4.176-.007-6.813 1.353-6.813 4.124 0 1.692 1.341 3.276 3.677 3.276 1.438 0 2.637-.538 3.358-1.402h.069s.478 1.874 3.105 1.157c-.139-.782-.184-1.614-.184-2.614v-3.863h.004zM3.912 5.652l1.237 5.969 1.005 5.252h.049c.26-1.607.669-3.129 1.105-5.014L8.85 5.652h3.413l1.442 6.367.918 4.782h.045l.97-4.903 1.386-6.246H20.3L16.242 20.1c-2.585.531-3.576-.447-3.93-1.998l-1.047-4.512-.828-4.424h-.049c-.277 1.646-.568 2.8-.998 4.42l-1.702 6.517c-2.641.495-3.555-.238-4.061-2.23L.467 5.655h3.445v-.003zm58.454 10.572c0 .199-.017.407-.076.587-.243.753-1.071 1.389-2.104 1.389-.863 0-1.549-.46-1.549-1.434 0-1.49 1.747-1.904 3.732-1.894v1.353h-.003zm3.115-2.598c0-2.461-1.116-4.623-4.89-4.623-1.937 0-3.476.512-4.314.968l.613 1.976c.766-.456 1.989-.831 3.146-.831 1.913-.003 2.228 1.02 2.228 1.676v.157c-4.172-.007-6.809 1.353-6.809 4.124 0 1.692 1.345 3.276 3.677 3.276 1.435 0 2.637-.538 3.354-1.402h.073s.478 1.874 3.105 1.157c-.139-.782-.184-1.614-.184-2.614v-3.863z" fill="#041e42"/><path d="M94.048 15.124c.308.528.287 1.117-.041 1.385l-5.672 3.918c-.591.337-1.475-.072-1.976-.926s-.415-1.814.176-2.151l6.28-2.88c.394-.15.926.126 1.233.654zm7.465 0c.311-.528.84-.8 1.233-.657l6.284 2.88c.59.337.677 1.294.176 2.151s-1.392 1.259-1.98.926l-5.671-3.918c-.325-.266-.349-.858-.042-1.382zm-3.734 2.124c.618 0 1.126.313 1.195.725l.611 6.801c0 .674-.798 1.226-1.803 1.226s-1.803-.552-1.803-1.226l.608-6.801c.069-.412.577-.725 1.192-.725zm3.776-7.754l5.671-3.921c.588-.337 1.475.068 1.98.926s.414 1.814-.176 2.151l-6.284 2.883c-.393.143-.925-.129-1.233-.657s-.283-1.117.042-1.382zm-8.74 2.039l-6.28-2.883c-.587-.337-.677-1.294-.176-2.151s1.389-1.263 1.976-.926l5.672 3.921c.328.262.349.854.041 1.382s-.839.8-1.233.657zm3.772-3.506l-.608-6.801c0-.674.798-1.225 1.803-1.225s1.803.551 1.803 1.225l-.611 6.801c-.069.408-.577.725-1.195.725s-1.123-.317-1.192-.725zM110.738 20.4v-.17h.156a.08.08 0 0 1 .086.085c0 .048-.034.085-.086.085h-.156zm-.127.31c0 .017.013.034.034.034h.066c.017 0 .034-.017.034-.034v-.194h.107l.087.204c.007.014.017.024.031.024h.079c.025 0 .042-.024.031-.048l-.093-.191c.052-.017.131-.068.131-.191 0-.129-.107-.204-.214-.204h-.259c-.017 0-.034.017-.034.034v.565zm-.28-.282c0-.276.228-.5.508-.5s.507.221.507.5-.224.5-.507.5-.508-.225-.508-.5zm-.121 0c0 .34.28.619.629.619s.628-.279.628-.619-.283-.62-.628-.62-.629.279-.629.62z" fill="#ffc124"/></svg>